<?xml version="1.0" encoding="utf-8"?>
<!-- Generator: Adobe Illustrator 27.4.1, SVG Export Plug-In . SVG Version: 6.00 Build 0)  -->
<svg version="1.1" id="Capa_1" xmlns="http://www.w3.org/2000/svg" xmlns:xlink="http://www.w3.org/1999/xlink" x="0px" y="0px"
	 viewBox="0 0 800 800" style="enable-background:new 0 0 800 800;" xml:space="preserve">
<style type="text/css">
	.st0{fill:#E80C0C;}
</style>
<path class="st0" d="M360.8,31.3l-21.5,18.1l9.4,11.2c-5,0.7-10,1.7-14.9,3.3c-15.6,4.9-28.7,13.5-37.6,24.7s-13.9,26-9.6,40.3
	c0.7,2.2,1.5,4.3,2.6,6.3c-2,4.5-3.2,9.3-3.2,14.5c0,15.6,6.8,34.5,25.2,46.3c0.2,0.1,0.3,0.2,0.5,0.3c-4.4,4.1-8.4,8.6-11.9,13.5
	l-63.6-21.2L188.3,45.3l-26.7,8.9l52.2,156.7l73.9,24.6c-1.2,4.9-1.8,9.7-1.8,14.3v1l7.2,50.7c8.3-5.2,16.8-9.9,25.5-14.3
	c0.3-0.1,0.5-0.2,0.8-0.4l-4.1-28.5c32-13.8,58.3-20.5,84.6-20.4c26.3,0.1,52.6,7,84.6,20.5l-4.1,28.4c0.3,0.1,0.5,0.2,0.8,0.4
	c8.7,4.4,17.2,9.1,25.5,14.3l7.2-50.7v-1c0-4.5-0.6-9.4-1.8-14.3l73.9-24.6l52.2-156.7l-26.7-8.9l-47.8,143.3l-63.6,21.2
	c-3.8-5.4-8.3-10.3-13.2-14.7c17.8-11.4,27-28.7,27-45.3c0-5.2-1.2-10-3.2-14.5c1-2,1.9-4.1,2.6-6.3c4.3-14.3-0.7-29.1-9.6-40.3
	c-8.9-11.2-22-19.9-37.6-24.7c-4.8-1.5-9.8-2.6-14.9-3.3l9.4-11.2l-21.5-18.1l-33,39.2c-2.2,1.7-4.3,3.5-6.2,5.6
	c-1.9-2.1-4-3.9-6.2-5.6L360.8,31.3z M357.2,88.3c4.8-0.1,9.2,0.5,12.8,1.6c7.2,2.2,10.5,5.7,11.6,9.3c1.1,3.6,0.2,8.4-4.5,14.4
	c-4.8,6-13.2,12-23.9,15.3c-10.6,3.3-21,3.2-28.2,1c-7.2-2.2-10.5-5.7-11.6-9.3c-1.1-3.6-0.2-8.4,4.5-14.4c4.8-6,13.2-12,23.9-15.3
	C347.2,89.2,352.4,88.4,357.2,88.3L357.2,88.3z M442.8,88.3c4.8,0.1,10.1,0.9,15.4,2.6c10.6,3.3,19.1,9.4,23.9,15.3
	c4.8,6,5.6,10.7,4.5,14.4c-1.1,3.6-4.4,7.1-11.6,9.3c-7.2,2.2-17.5,2.4-28.2-1c-10.6-3.3-19.1-9.4-23.9-15.3
	c-4.8-6-5.6-10.7-4.5-14.4c1.1-3.6,4.4-7.1,11.6-9.3C433.6,88.8,438,88.2,442.8,88.3z M400,129.5c0.4,0.6,0.8,1.1,1.2,1.6
	c8.9,11.2,22,19.9,37.6,24.7c15.6,4.9,31.2,5.2,44.7,1c0.5-0.2,1-0.3,1.6-0.5c-1.5,5.3-5.4,10.5-14.2,15.7
	c-3.2,1.9-7.2,3.8-11.8,5.5c-15.9-6.8-35.4-11-59-11c-24.5,0-44.7,4.6-60.8,11.8c-5.4-1.8-9.6-3.8-12.8-5.9
	c-8.1-5.3-11-10.1-11.9-16.2c0.7,0.2,1.3,0.5,2,0.7c13.5,4.2,29.1,3.9,44.7-1c15.6-4.9,28.7-13.5,37.6-24.7
	C399.2,130.6,399.6,130.1,400,129.5L400,129.5z M400,194.6c43.4,0,66,15.4,77,30.7c-27-9.6-52-14.5-77-14.6
	c-24.9-0.1-49.8,4.7-76.8,14.3C334.2,209.8,356.9,194.6,400,194.6L400,194.6z M54.4,286.4l-8.9,26.7l68.3,22.8l27,81.1l43.3-12.4
	c9.9-13.3,20.4-26.1,31.6-38.3l-56.7,16.2l-23-68.9L54.4,286.4z M745.6,286.4l-81.7,27.2l-23,68.9l-56.7-16.2
	c11.2,12.2,21.7,25,31.6,38.3l43.3,12.4l27-81.1l68.3-22.8L745.6,286.4z M334.1,311.2c-0.4,0-1.1,0.3-2.8,1.2
	c-95,47.5-162.6,150.8-199.3,248.6c-18.3,48.9-29,96.3-32,133.7c-3,37.4,4.1,64.3,10,70.2c2.7,2.8,6.8,4.3,15.1,3.7
	c8.3-0.7,19.9-4.1,32.9-10.4c26.1-12.5,58.2-35.8,88.6-64.5c60.9-57.5,114.3-138.4,114.3-193.8c0-25-0.1-80.9-6.1-126.3
	c-3-22.7-7.9-42.9-13.4-53.6c-2.8-5.4-5.5-7.8-6.4-8.3C334.6,311.4,334.5,311.1,334.1,311.2L334.1,311.2z M465.9,311.2
	c-0.4,0-0.5,0.2-1,0.4c-0.9,0.5-3.6,2.9-6.4,8.3c-5.5,10.7-10.4,30.9-13.4,53.6c-6.1,45.4-6.1,101.3-6.1,126.3
	c0,55.5,53.5,136.3,114.3,193.8c30.4,28.8,62.5,52,88.6,64.5c13.1,6.3,24.6,9.7,32.9,10.4c8.3,0.7,12.4-0.9,15.1-3.7
	c5.9-5.9,13-32.8,10-70.2c-3-37.4-13.7-84.8-32-133.7c-36.7-97.8-104.2-201-199.3-248.6C467.1,311.5,466.3,311.2,465.9,311.2z
	 M400,410.7c-4.4,0-8.9,0.2-13.3,0.7c0.6,9.6,1.1,19.1,1.4,28.2c3.9-0.5,7.9-0.8,11.9-0.8c3.9,0,7.9,0.4,11.8,1.1
	c0.3-9.1,0.8-18.7,1.4-28.3C408.9,411,404.4,410.7,400,410.7L400,410.7z M347.4,617.8c-5.4,8.3-11.1,16.6-17.2,24.7
	c7.2,10,15.2,19,23.9,26.6c13.3,11.5,28.7,19.8,45.9,19.8s32.6-8.3,45.9-19.8c8.7-7.5,16.6-16.6,23.9-26.6
	c-6.1-8.1-11.8-16.3-17.2-24.7c-7.8,12-16.5,22.5-25.1,30c-10.1,8.8-19.7,13-27.5,13c-7.8,0-17.4-4.2-27.5-13
	C363.9,640.3,355.2,629.8,347.4,617.8L347.4,617.8z"/>
</svg>
